<svg id="Camada_1" data-name="Camada 1" xmlns="http://www.w3.org/2000/svg" viewBox="0 0 119.96 133.24"><circle cx="100" cy="100" r="59.98" transform="translate(-81.44 66.62) rotate(-45)" style="fill:#5c85b7"/><path d="M60.14,159h83s2.91-47.7-7.66-54.68-60-5.52-70.95.44S60.14,159,60.14,159Z" transform="translate(-40.02 -33.38)" style="fill:#f6b56b"/><path d="M74,94.24a.51.51,0,0,1-.35-.13c-.22-.18-5.54-4.66-2.63-13.68a65.65,65.65,0,0,1,2.89-7.36,26.77,26.77,0,0,0,2.95-11.61.58.58,0,0,1,.56-.52.54.54,0,0,1,.51.56,27.83,27.83,0,0,1-3,12A65.72,65.72,0,0,0,72,80.76c-2.67,8.29,2.09,12.35,2.3,12.52a.54.54,0,0,1,.07.76A.53.53,0,0,1,74,94.24Z" transform="translate(-40.02 -33.38)" style="fill:#41294a"/><path d="M103.4,40.42a6.78,6.78,0,1,1-6.52-7A6.79,6.79,0,0,1,103.4,40.42Z" transform="translate(-40.02 -33.38)" style="fill:#41294a"/><path d="M73.35,91.6s2,4.11,10.12,5.55,14.5-1.5,20.78.78,15.34-.69,17.14-3.33,1.42-31.83-3.53-36.73-30.87-9-36.49-3.25S69.78,88.31,73.35,91.6Z" transform="translate(-40.02 -33.38)" style="fill:#41294a"/><circle cx="97.93" cy="67.73" r="22.36" transform="translate(-52.29 79.45) rotate(-56.93)" style="fill:#41294a"/><path d="M107.11,87.26s1.45,17.41,0,19.35-10.65.48-13.06,0-3.39-19.35-1.94-19.35S106.83,83.38,107.11,87.26Z" transform="translate(-40.02 -33.38)" style="fill:#f29f84"/><path d="M79.68,66.89S80.6,94,99,95.2s18.33-37.06,11.69-40.7S76.29,51.54,79.68,66.89Z" transform="translate(-40.02 -33.38)" style="fill:#f29f84"/><path d="M98.52,72.7s3.5,8.35,2.6,8.91a5.39,5.39,0,0,1-4.25-.16C96.16,80.83,97.09,71.77,98.52,72.7Z" transform="translate(-40.02 -33.38)" style="fill:#da5c5d"/><path d="M93,75.5a1.72,1.72,0,1,1-1.63-1.81A1.71,1.71,0,0,1,93,75.5Z" transform="translate(-40.02 -33.38)" style="fill:#41294a"/><path d="M107.82,74.68a1.72,1.72,0,1,1-1.63-1.8A1.72,1.72,0,0,1,107.82,74.68Z" transform="translate(-40.02 -33.38)" style="fill:#41294a"/><path d="M94.13,52.42s-6.58,3.18-7.83,9.15-.61,21.27-7.58,20.57C78.72,82.14,65.22,51.87,94.13,52.42Z" transform="translate(-40.02 -33.38)" style="fill:#41294a"/><path d="M97.59,52.55c-.59.43,6.79.41,11,5.52s5.22,17.9,5.87,18.14,3.26-15.84-1.37-20.67S101,50.12,97.59,52.55Z" transform="translate(-40.02 -33.38)" style="fill:#41294a"/><path d="M92.37,92.73s7.14,4.06,14.55.26c0,0,.57,4.56,0,5.61s-12.32,1.8-14.63-3.38C92.29,95.22,91.7,92.5,92.37,92.73Z" transform="translate(-40.02 -33.38)" style="fill:#da5c5d"/><path d="M112.89,77.3s1.76-6.8,4.82-4.38S118,82.44,115,83.09,111.22,80.8,112.89,77.3Z" transform="translate(-40.02 -33.38)" style="fill:#f29f84"/><path d="M84,76.21s-1.24-6.9-4.48-4.72-1,9.47,2,10.34S85.36,79.83,84,76.21Z" transform="translate(-40.02 -33.38)" style="fill:#f29f84"/><path d="M105.41,68.54s3.29-1.63,5.23.88c1.7,2.2-2.27.35-3.75.6S103.46,70.09,105.41,68.54Z" transform="translate(-40.02 -33.38)" style="fill:#41294a"/><path d="M92.51,68.86s-3.29-1.62-5.22.89c-1.7,2.21,2.26.35,3.75.59S94.47,70.4,92.51,68.86Z" transform="translate(-40.02 -33.38)" style="fill:#41294a"/><path d="M91.17,82.86h-.23A5.9,5.9,0,0,1,86.78,81a6,6,0,0,1,4.38-10h.23a6,6,0,0,1-.22,12Zm0-11.23A5.25,5.25,0,0,0,91,82.13h.2a5.26,5.26,0,0,0,.19-10.51Z" transform="translate(-40.02 -33.38)" style="fill:#fffbf5"/><path d="M106.07,82h-.22a6,6,0,0,1,.21-12h.23A6,6,0,0,1,106.07,82Zm0-11.23a5.26,5.26,0,0,0-.19,10.51h.2a5.25,5.25,0,0,0,3.85-8.83,5.18,5.18,0,0,0-3.65-1.67Z" transform="translate(-40.02 -33.38)" style="fill:#fffbf5"/><path d="M85.73,75.84a.28.28,0,0,1-.13,0L83.41,75a.36.36,0,0,1,.26-.67l2.19.86a.35.35,0,0,1,.2.47A.36.36,0,0,1,85.73,75.84Z" transform="translate(-40.02 -33.38)" style="fill:#fffbf5"/><path d="M111.47,74.88a.35.35,0,0,1-.34-.26.34.34,0,0,1,.25-.44l3-.87a.36.36,0,1,1,.2.69l-3,.87Z" transform="translate(-40.02 -33.38)" style="fill:#fffbf5"/><path d="M96.35,51S97.18,65.7,101.23,67s14,1,14.51-.64S108,51.84,102.12,49.77C91.78,46.12,82.86,62.93,84,67s10.06.5,12,0S96,53.9,96.35,51Z" transform="translate(-40.02 -33.38)" style="fill:#41294a"/><path d="M86.26,81.75s9.39-5.12,13.44-4.28,11.18,1.13,11.47,2.6-9.07.58-12,.8S85.18,84.13,86.26,81.75Z" transform="translate(-40.02 -33.38)" style="fill:#da5c5d;opacity:0.21"/><path d="M91.53,78.5a.55.55,0,0,1-.5-.35.54.54,0,0,1,.31-.7,2.43,2.43,0,0,0,1-.58.5.5,0,0,1,.68-.28.55.55,0,0,1,.3.72c-.08.23-.41.69-1.62,1.15A.71.71,0,0,1,91.53,78.5Z" transform="translate(-40.02 -33.38)" style="fill:#da5c5d"/><path d="M105.73,78.11a3.68,3.68,0,0,1-1.59-.5.54.54,0,0,1-.23-.73.52.52,0,0,1,.72-.23c.81.41,1.12.38,1.12.37a.52.52,0,0,1,.67.32.57.57,0,0,1-.34.71A1,1,0,0,1,105.73,78.11Z" transform="translate(-40.02 -33.38)" style="fill:#da5c5d"/><path d="M96.77,77.14a.35.35,0,0,1-.35-.33.36.36,0,0,1,.33-.39l3.7-.29a.34.34,0,0,1,.38.33.36.36,0,0,1-.33.39l-3.7.29Z" transform="translate(-40.02 -33.38)" style="fill:#fffbf5"/><path d="M92.39,47a.44.44,0,0,1-.25-.06,6.08,6.08,0,0,1-3.52-4.24c-.76-3.93,2.81-8.14,3-8.32a.54.54,0,0,1,.82.71S89,39,89.68,42.45a5.08,5.08,0,0,0,2.95,3.48.55.55,0,0,1,.24.73A.54.54,0,0,1,92.39,47Z" transform="translate(-40.02 -33.38)" style="fill:#41294a"/><path d="M100.21,48.16A.52.52,0,0,1,99.8,48a.53.53,0,0,1,.06-.76s4-3.39,3.9-6.87a5.08,5.08,0,0,0-2.34-3.92.54.54,0,0,1-.11-.76.55.55,0,0,1,.76-.1,6.07,6.07,0,0,1,2.77,4.76c.11,4-4.1,7.57-4.28,7.72A.57.57,0,0,1,100.21,48.16Z" transform="translate(-40.02 -33.38)" style="fill:#41294a"/><path d="M119.59,93.78a.53.53,0,0,1-.43-.21.55.55,0,0,1,.09-.76,10,10,0,0,0,3.42-9.51,68.23,68.23,0,0,0-2.14-7.55c-1.52-4.71-3.09-9.58-3.12-14.27a.55.55,0,0,1,.54-.55h0a.54.54,0,0,1,.54.54c0,4.53,1.57,9.32,3.07,13.94a69.24,69.24,0,0,1,2.17,7.68,11.11,11.11,0,0,1-3.81,10.58A.59.59,0,0,1,119.59,93.78Z" transform="translate(-40.02 -33.38)" style="fill:#41294a"/><path d="M121.39,69.13h-.07a.55.55,0,0,1-.47-.6c.73-5.95-.4-10.81-3.37-14.45-4.78-5.88-12.77-6.6-12.85-6.6a.54.54,0,0,1,.09-1.08c.35,0,8.53.77,13.6,7,3.16,3.88,4.37,9,3.6,15.26A.54.54,0,0,1,121.39,69.13Z" transform="translate(-40.02 -33.38)" style="fill:#41294a"/><path d="M99.44,90.14c-.57,0-1.18,0-1.74,0a.72.72,0,0,1-.69-.75.75.75,0,0,1,.75-.69,22.11,22.11,0,0,0,3,0,.71.71,0,0,1,.91.44.72.72,0,0,1-.44.92A7.11,7.11,0,0,1,99.44,90.14Z" transform="translate(-40.02 -33.38)" style="fill:#da5c5d"/><path d="M82.08,80.14l-.15,0a.54.54,0,0,1-.36-.68,5.38,5.38,0,0,0-1.4-5.39.55.55,0,0,1,0-.77.54.54,0,0,1,.76,0,6.42,6.42,0,0,1,1.71,6.52A.55.55,0,0,1,82.08,80.14Z" transform="translate(-40.02 -33.38)" style="fill:#da5c5d"/><path d="M114.14,81.72h0a.53.53,0,0,1-.49-.58,10.69,10.69,0,0,1,2.45-6.28.54.54,0,1,1,.78.75,9.89,9.89,0,0,0-2.15,5.62A.55.55,0,0,1,114.14,81.72Z" transform="translate(-40.02 -33.38)" style="fill:#da5c5d"/><path d="M84.11,76.66s4.7,3.93,5.07,4.52.22,8.24-.52,8.14S83.45,82,83,82s-.27.8-.27.8,3.83,6.34,6.14,8.13,16.69,1.87,19.62.21,5.42-7.86,5.2-8-.79-.63-.88-.42-4.06,7.27-4.56,7,.06-8.09,0-8.84S114,74.52,114,74.52l.42-.7-.59-.16s-5.7,5.69-7.13,5.65-16.41,1-17.1.8-5.33-5.27-5.91-5.06S84,76.21,84.11,76.66Z" transform="translate(-40.02 -33.38)" style="fill:#fffbf5"/><path d="M82.64,105.84s12.27,14.68,21.74,10.75,18.33-14.57,13.57-16S75.2,99.94,82.64,105.84Z" transform="translate(-40.02 -33.38)" style="fill:#f29f84"/><path d="M136.53,97.15s-1.66-13-2.22-13.79-4.78,5.53-3.64,9.14-14.62,3.7-13.4,9,.48,12.4,7,12.77,14-1.41,15.53-3.84S136.53,97.15,136.53,97.15Z" transform="translate(-40.02 -33.38)" style="fill:#f29f84"/><path d="M145.09,108.78s16.95,21.45,13.64,35.55S139.3,160.72,136,158.9,133.93,96.56,145.09,108.78Z" transform="translate(-40.02 -33.38)" style="fill:#f6b56b"/><path d="M61.59,106.13s-22.12,23.76-20.68,45C42.09,168.6,69,165.94,72.27,164.28S72.75,95.06,61.59,106.13Z" transform="translate(-40.02 -33.38)" style="fill:#f6b56b"/><path d="M137.8,100.23s22.2,43.92,16.1,51.43S137,160,132.63,153.81c-2.52-3.64,1-35.8-2.72-39.75S136.61,98.16,137.8,100.23Z" transform="translate(-40.02 -33.38)" style="fill:#f29f84"/><path d="M103.64,145.5s15.09,5.7,17.51,10.5-6.55-1.05-8.66-1.92,5.5,5.18,5.72,6.58-8.45-4.13-8.45-4.13,6,6.38,5.44,7.71-7.49-4.14-7.49-4.14,3.58,5.67,2.4,6.47-9-8.6-15.39-8.21-30.74,14.5-40,.32S53.28,137.76,71.2,138,98.66,143.42,103.64,145.5Z" transform="translate(-40.02 -33.38)" style="fill:#f29f84"/></svg>