<svg id="Camada_1" data-name="Camada 1" xmlns="http://www.w3.org/2000/svg" viewBox="0 0 247.66 308.8"><path d="M264.54,172.9c-.41,22.12-2.39,37-6.56,46.71-2.68,6.25-6.26,10.37-10.91,13a20,20,0,0,1-9.78,2.56,20.81,20.81,0,0,1-6.36-1,25.25,25.25,0,0,1-7.47-3.9,74.27,74.27,0,0,1-16-17.27,136.05,136.05,0,0,1-8.88-14.88c-1.87-3.59-3.69-7.39-5.46-11.43a237,237,0,0,1-10-27.26l15.39-4.54,15.25-6.42a185.32,185.32,0,0,0,8.82,25.31c1.75,3.94,3.43,7.4,5.05,10.43,1.37,2.57,2.69,4.83,3.95,6.83,0-.16,0-.33,0-.49.53-5.74.93-13.36,1-23.41.07-10.87-.3-21-.59-27.23a10.51,10.51,0,0,1,6.14-10.14,26.33,26.33,0,0,1,18.35-1.22,10.46,10.46,0,0,1,7.52,9.62C264.34,145.81,264.8,159.08,264.54,172.9Z" transform="translate(-16.96 -15.11)" style="fill:#fd505d"/><path d="M258,219.61c-2.68,6.25-6.26,10.37-10.91,13a20,20,0,0,1-9.78,2.56,20.81,20.81,0,0,1-6.36-1c4.92-7.58,13.3-17.45,23-16.11A8.19,8.19,0,0,1,258,219.61Z" transform="translate(-16.96 -15.11)" style="fill:#d61c3a"/><path d="M207.47,213a136.69,136.69,0,0,1-8.89-14.88c3.52-19.09,13.72-46.31,13.91-46.82C205.4,198.83,206.65,203,207.47,213Z" transform="translate(-16.96 -15.11)" style="fill:#d61c3a"/><path d="M231.59,191s-1.54,10-4,19.4V184.16c1.37,2.58,2.69,4.84,3.95,6.84,0-.16,0-.33.05-.5Z" transform="translate(-16.96 -15.11)" style="fill:#d61c3a"/><path d="M262.4,119.11s2.68,16.92-8.33,19c-1.42.27-2.76.47-4,.61-.69.07-1.35.13-2,.17-7,.45-10.64-1.08-10.64-1.08s-9.52-7-9.81-13c-.25-5,4.13-7.28,5.69-7.95a5.78,5.78,0,0,1,.55-.2s-.25-.53-.57-1.42c-1.23-3.4.57-13.72,3.23-14.73,4.93-1.88,24.69,1,25.88,8,.06.38.12.75.17,1.1.11.78.19,1.51.25,2.19A20.42,20.42,0,0,1,262.4,119.11Z" transform="translate(-16.96 -15.11)" style="fill:#ffad96"/><path d="M244.67,126.18l-.2.3c-.71.92-2.12,1.38-3.88,1.38a16.08,16.08,0,0,1-6.75-1.72.77.77,0,0,1-.36-1,.74.74,0,0,1,1-.36c3.93,1.9,7.9,2,8.83.78.56-.72-.26-2-.8-2.64a20.27,20.27,0,0,0-7.38-5.26l-.14-.06-.2-.08-.21-.1-1.26-.51a5.78,5.78,0,0,1,.55-.2s-.25-.53-.57-1.42c.69.25,1.56.59,2.52,1l.06,0c.46.22.95.45,1.44.71s1.29.7,1.94,1.12a19.6,19.6,0,0,1,2.64,2,14.6,14.6,0,0,1,1.76,1.84,6,6,0,0,1,1.24,2.3h0A2.63,2.63,0,0,1,244.67,126.18Z" transform="translate(-16.96 -15.11)" style="fill:#f48276"/><path d="M250.06,138.75c-.69.07-1.35.13-2,.17a10.71,10.71,0,0,1-1-1.29,12.94,12.94,0,0,1-1.44-2.85,18,18,0,0,1-.59-2.08,22.9,22.9,0,0,1-.35-6.52c.05-.73.14-1.38.22-1.92.13-.89.27-1.47.29-1.55a.73.73,0,0,1,.89-.56.75.75,0,0,1,.55.92c0,.08-2,8.38,1.66,13.71A9.32,9.32,0,0,0,250.06,138.75Z" transform="translate(-16.96 -15.11)" style="fill:#f48276"/><path d="M242,136.93a.75.75,0,0,1-.73-.61.76.76,0,0,1,.59-.88,4.28,4.28,0,0,0,3.18-2.92.74.74,0,1,1,1.44.36,5.77,5.77,0,0,1-4.33,4Z" transform="translate(-16.96 -15.11)" style="fill:#f48276"/><path d="M239.41,118.8a.74.74,0,0,1-.67-.43c-2.11-4.4-1.34-10.43-1.31-10.68a.74.74,0,0,1,.84-.65.76.76,0,0,1,.64.85c0,.06-.74,5.84,1.17,9.82a.76.76,0,0,1-.35,1A.72.72,0,0,1,239.41,118.8Z" transform="translate(-16.96 -15.11)" style="fill:#f48276"/><path d="M246,120.91a.74.74,0,0,1-.67-.43c-2.11-4.39-1.34-10.42-1.31-10.68a.75.75,0,1,1,1.48.2c0,.06-.74,5.84,1.17,9.82a.76.76,0,0,1-.35,1A.61.61,0,0,1,246,120.91Z" transform="translate(-16.96 -15.11)" style="fill:#f48276"/><path d="M253.63,121.23a.74.74,0,0,1-.67-.43c-2.1-4.38-1.58-10.13-1.56-10.37a.74.74,0,1,1,1.48.15s-.5,5.57,1.42,9.56a.76.76,0,0,1-.35,1A.72.72,0,0,1,253.63,121.23Z" transform="translate(-16.96 -15.11)" style="fill:#f48276"/><path d="M262.82,111.83a9.16,9.16,0,0,1-2.47,1.81,8.91,8.91,0,0,1-1.42.6h0a.76.76,0,0,1-.21,0,.73.73,0,0,1-.71-.55.75.75,0,0,1,.51-.93,7.57,7.57,0,0,0,4.09-3.16C262.68,110.42,262.76,111.15,262.82,111.83Z" transform="translate(-16.96 -15.11)" style="fill:#f48276"/><path d="M252,121.88c-7.56,0-17-4.24-17.55-4.5a.76.76,0,0,1-.37-1,.74.74,0,0,1,1-.38c.19.09,19.24,8.68,23.86,1.64a10.66,10.66,0,0,0-.12-4,.76.76,0,0,1,.61-.87.75.75,0,0,1,.86.62c.19,1.18.57,4-.12,5.07C258.53,121,255.48,121.88,252,121.88Z" transform="translate(-16.96 -15.11)" style="fill:#f48276"/><path d="M211.05,310.14q-3.8,1.91-7.71,3.52c-16.61,6.89-34.69,10-52.53,10.25H150a169.21,169.21,0,0,1-16.91-.74l-2-.2a169.27,169.27,0,0,1-20.7-3.5l-2-.5-2.5-.65c-.79-.21-1.58-.41-2.36-.64-1.55-.44-3.09-.9-4.6-1.38l-1.65-.52-.86-.29c-1.93-.64-3.82-1.3-5.67-2-2.29-.86-4.52-1.78-6.7-2.74-1.91-13.62-3.86-29.91-5.39-48.1-1.67-19.91-.48-42.4,2.41-63.91.59-4.42,1.26-8.78,2-13.09,1.24-7.36,2.67-14.53,4.22-21.31,0-.11.05-.22.08-.33h0c6.81-29.6,16.07-52.15,23.55-54.66,15.68-5.25,100.72,19.83,103.2,38.23-.75,13.64-14.56,51-16.09,58.72C192.64,232.82,203,279.92,211.05,310.14Z" transform="translate(-16.96 -15.11)" style="fill:#fd505d"/><path d="M119.44,149.38S98.88,193.94,81,198.71c.59-4.41,1.25-8.79,2-13.08,1.24-7.37,2.66-14.53,4.21-21.32,0-.11.06-.23.08-.33C95.73,159.1,106.74,155.25,119.44,149.38Z" transform="translate(-16.96 -15.11)" style="fill:#d61c3a"/><path d="M166.55,140.62c-.49,0-1,0-1.54-.05-13-.85-20.41-14.07-20.72-14.64a1.17,1.17,0,0,1,.44-1.58,1.14,1.14,0,0,1,1.56.45h0c.07.13,7.13,12.69,18.87,13.45,11.2.72,12.16-7.39,12.2-7.73a1.15,1.15,0,1,1,2.28.22C179.63,130.84,178.57,140.62,166.55,140.62Z" transform="translate(-16.96 -15.11)" style="fill:#d61c3a"/><path d="M143.68,116.45c15.81,23.38,29.5,16.16,29.5,16.16l3.62-14.23,2.58-10.13-19.73-17.1-5.08-4.4-.29.79L153.75,89Z" transform="translate(-16.96 -15.11)" style="fill:#ffad96"/><path d="M153.75,89c1.33,5.57,11.25,33.66,23.56,27.37l2.07-8.11-19.73-17.1-5.37-3.61Z" transform="translate(-16.96 -15.11)" style="fill:#2e123e"/><path d="M186.82,57.23s12.24-5.7,16.71,6.15-5.6,19.82-16.32,15.86Z" transform="translate(-16.96 -15.11)" style="fill:#f48276"/><path d="M201.1,77.39l0,1.12c0,1.12-.12,2.25-.23,3.37-.8,8.22-3.38,16.29-9.1,22.71-13.5,15.17-29.08.27-40.06-17.2-1.34-2.12-2.61-4.28-3.8-6.44a135.19,135.19,0,0,1-7.64-16.22c-.3-.77-.57-1.53-.81-2.29-7.25-22.93,12.41-37.57,23.62-39.16,10.87-1.56,20.35,1.66,27.47,11.75a47.6,47.6,0,0,1,3.65,6.2s6.45,15.58,6.92,32.69C201.13,75.07,201.13,76.23,201.1,77.39Z" transform="translate(-16.96 -15.11)" style="fill:#ffad96"/><path d="M168.53,63.83l-.12,0a.43.43,0,0,1-.3-.54c0-.06,1.6-5.47,7.11-6.14a.44.44,0,0,1,.11.88c-4.94.6-6.36,5.45-6.37,5.5A.45.45,0,0,1,168.53,63.83Z" transform="translate(-16.96 -15.11)" style="fill:#f48276"/><path d="M196.8,59.7a.44.44,0,0,1-.36-.18c-2.44-3.3-6.94-3.34-7-3.34a.45.45,0,0,1,0-.89h0c.24,0,5,.05,7.7,3.7a.45.45,0,0,1-.35.71Z" transform="translate(-16.96 -15.11)" style="fill:#f48276"/><path d="M180.84,75.17a.47.47,0,0,0-.48-.45.47.47,0,0,0-.44.49,3.36,3.36,0,0,1-1.2,2.64l-.17.12a.44.44,0,0,0-.18.58l0,.06a.42.42,0,0,0,.6.17l.26-.17A4.25,4.25,0,0,0,180.84,75.17Z" transform="translate(-16.96 -15.11)" style="fill:#f48276"/><path d="M192.43,75a.46.46,0,0,1,.16-.64.47.47,0,0,1,.64.16A3.32,3.32,0,0,0,195.68,76h.21a.43.43,0,0,1,.46.38v.08A.43.43,0,0,1,196,77h-.31A4.28,4.28,0,0,1,192.43,75Z" transform="translate(-16.96 -15.11)" style="fill:#f48276"/><path d="M174.83,77.74a12.54,12.54,0,0,1-4.73-1.17.47.47,0,0,1-.25-.62.46.46,0,0,1,.61-.25c2.92,1.24,5.14,1.43,6.42.55a3.36,3.36,0,0,0,1.25-2.61.48.48,0,0,1,.46-.48.47.47,0,0,1,.47.46,4.3,4.3,0,0,1-1.65,3.4A4.41,4.41,0,0,1,174.83,77.74Z" transform="translate(-16.96 -15.11)" style="fill:#f48276"/><path d="M196,75a4.55,4.55,0,0,1-1-.12,6.3,6.3,0,0,1-3.65-2.75.48.48,0,0,1,.15-.65.47.47,0,0,1,.64.16A5.42,5.42,0,0,0,195.16,74a4.67,4.67,0,0,0,3.67-.91.47.47,0,0,1,.51.78A6,6,0,0,1,196,75Z" transform="translate(-16.96 -15.11)" style="fill:#f48276"/><path d="M190.52,35c-3.19,5.43-22.94,5.34-28.52,4.23-6-1.19-15,.6-15,.6l6.61,1s2.53,5.81,1.24,10.76,3,15.88,3,15.88L152.76,69l-3.2-8.83c-5.12-2.27-10.13,2.26-10.13,2.26-2.59-8.18-1.75-15.3.91-21.16,4.79-10.55,15.5-17,22.72-18C173.92,21.72,183.4,24.94,190.52,35Z" transform="translate(-16.96 -15.11)" style="fill:#2e123e"/><path d="M195.29,40.88c-28.3-5.77-58.63,18-58.63,18-.82-2.9-.2-7.19-1.4-11.21-1.88-6.34-1.66-15.56,3.21-22.52a21.56,21.56,0,0,1,2.23-2.68,22,22,0,0,1,8.63-5.31l.49-.16c.43-.14.85-.28,1.27-.4a38.23,38.23,0,0,1,7.53-1.41c.56-.05,1.11-.08,1.66-.1a30.4,30.4,0,0,1,9.79,1.24h0a27.46,27.46,0,0,1,2.6.9h0C188.28,23.46,195.29,40.88,195.29,40.88Z" transform="translate(-16.96 -15.11)" style="fill:#fdac3d"/><path d="M141.61,51.64a.83.83,0,0,1-.38,0,.81.81,0,0,1-.66-.56,55.17,55.17,0,0,1-2.1-25.92,21.56,21.56,0,0,1,2.23-2.68,53.45,53.45,0,0,0,1.43,28.08A.84.84,0,0,1,141.61,51.64Z" transform="translate(-16.96 -15.11)" style="fill:#e8821e"/><path d="M155.3,44.38a.83.83,0,0,1-.55.11.81.81,0,0,1-.58-.38c-6.1-9.92-5.69-21-4.84-26.91l.49-.16c.43-.14.85-.28,1.27-.4-.84,5.43-1.58,16.75,4.48,26.59A.85.85,0,0,1,155.3,44.38Z" transform="translate(-16.96 -15.11)" style="fill:#e8821e"/><path d="M165.81,35.88a.81.81,0,0,1-.64.18.82.82,0,0,1-.52-.3c-4.78-6-5.84-15.24-6-20.53.56-.05,1.11-.08,1.66-.1.19,5.08,1.19,14,5.65,19.58A.85.85,0,0,1,165.81,35.88Z" transform="translate(-16.96 -15.11)" style="fill:#e8821e"/><path d="M179.8,37a.85.85,0,0,1-.32,0,.83.83,0,0,1-.67-.63,60.64,60.64,0,0,0-8.73-20,27.46,27.46,0,0,1,2.6.9h0A63.8,63.8,0,0,1,180.4,36,.83.83,0,0,1,179.8,37Z" transform="translate(-16.96 -15.11)" style="fill:#e8821e"/><path d="M134.37,49.39s-.6,7.48,2,11.76c0,0,34.18-25,59.41-19,0,0,.16-7.7-4.45-12.5C191.3,29.65,161.69,24.35,134.37,49.39Z" transform="translate(-16.96 -15.11)" style="fill:#e8821e"/><path d="M147.88,81c1.19,2.16,2.46,4.32,3.79,6.44A17.1,17.1,0,0,0,156,80.83Z" transform="translate(-16.96 -15.11)" style="fill:#f48276"/><path d="M150.2,59.62s-13.33-1.92-14.3,10.73S146.84,87.73,156,80.83Z" transform="translate(-16.96 -15.11)" style="fill:#ffad96"/><path d="M176.05,66.76q-1.65.54-3.27,1.17A8.1,8.1,0,0,0,173,70.4c.58,2.39,2,4.09,3.13,3.8s1.6-2.46,1-4.85A8,8,0,0,0,176.05,66.76Z" transform="translate(-16.96 -15.11)" style="fill:#2e123e"/><path d="M168.43,69.72a.46.46,0,0,1-.44-.33.47.47,0,0,1,.29-.59L179.37,65a.47.47,0,0,1,.59.3.48.48,0,0,1-.29.6l-11.1,3.75A.32.32,0,0,1,168.43,69.72Z" transform="translate(-16.96 -15.11)" style="fill:#f48276"/><path d="M193.25,65.14c1.16,0,2.31,0,3.46,0a7.89,7.89,0,0,1,.6,2.4c.25,2.45-.51,4.53-1.68,4.66s-2.32-1.77-2.57-4.22A8.18,8.18,0,0,1,193.25,65.14Z" transform="translate(-16.96 -15.11)" style="fill:#2e123e"/><path d="M201.41,65.29a.45.45,0,0,0,.3-.45.47.47,0,0,0-.47-.46l-11.69.29a.47.47,0,0,0,0,.94l11.69-.29A.4.4,0,0,0,201.41,65.29Z" transform="translate(-16.96 -15.11)" style="fill:#f48276"/><path d="M197.15,51.92c-1.61-1.3-4.87-3.51-8.33-3.39a2.08,2.08,0,0,0-1.94,1.79l-.07.47a2.12,2.12,0,0,0,1.81,2.43,15.49,15.49,0,0,1,6.18,2.15,2.06,2.06,0,0,0,3.07-1.25h0A2.14,2.14,0,0,0,197.15,51.92Z" transform="translate(-16.96 -15.11)" style="fill:#2e123e"/><path d="M167.09,53.84c1.53-1.41,4.64-3.84,8.1-3.94a2.06,2.06,0,0,1,2.05,1.66l.1.48a2.1,2.1,0,0,1-1.65,2.52,15.77,15.77,0,0,0-6,2.56,2.06,2.06,0,0,1-3.14-1h0A2.13,2.13,0,0,1,167.09,53.84Z" transform="translate(-16.96 -15.11)" style="fill:#2e123e"/><path d="M182.43,61s10.94,13.72,11,18a2.82,2.82,0,0,1-1.68,2.63,5.4,5.4,0,0,1-7.6-3.84A85,85,0,0,1,182.43,61Z" transform="translate(-16.96 -15.11)" style="fill:#f48276"/><path d="M151.07,77.75a.85.85,0,0,1-.67-.56h0c0-.07-2.35-6.59-8.71-7.42h0a.85.85,0,0,1,.23-1.68l.22,0c7.24,1.09,9.76,8.22,9.86,8.52a.85.85,0,0,1-.51,1.08A.8.8,0,0,1,151.07,77.75Z" transform="translate(-16.96 -15.11)" style="fill:#f48276"/><path d="M143.19,76.92l-.13,0a.84.84,0,0,1-.54-1.06c.88-2.88,4-5.2,4.09-5.3a.84.84,0,0,1,1.17.18.87.87,0,0,1-.18,1.19s-2.77,2.1-3.49,4.43A.84.84,0,0,1,143.19,76.92Z" transform="translate(-16.96 -15.11)" style="fill:#f48276"/><g style="opacity:0.7000000000000001"><path d="M161.55,79.64c0,1.27,2.92,2.35,6.57,2.41s6.63-.92,6.65-2.19-2.92-2.34-6.58-2.4S161.57,78.38,161.55,79.64Z" transform="translate(-16.96 -15.11)" style="fill:#f48276"/></g><g style="opacity:0.7000000000000001"><path d="M201.1,77.39l0,1.12c0,1.12-.12,2.25-.23,3.37-3-.27-5.17-1.22-5.15-2.32S198,77.54,201.1,77.39Z" transform="translate(-16.96 -15.11)" style="fill:#f48276"/></g><path d="M164.19,82.79s.73,12.52-4.76,17.2c0,0,13.46,14,25.62,10.88,10.53-2.72,16.26-17.6,15.27-25.13C200.32,85.74,180.78,93.68,164.19,82.79Z" transform="translate(-16.96 -15.11)" style="fill:#fd505d"/><path d="M185.05,104.3a24.62,24.62,0,0,1-10.23-2.65.59.59,0,0,1-.25-.8.59.59,0,0,1,.8-.24c.11,0,10.63,5.5,16.59.08a.59.59,0,0,1,.83,0,.6.6,0,0,1,0,.84A11.12,11.12,0,0,1,185.05,104.3Z" transform="translate(-16.96 -15.11)" style="fill:#d61c3a"/><path d="M161,100.73a.72.72,0,0,1-.42-.13c-.2-.14-4.88-3.45-9.59-11.68a.75.75,0,0,1,.27-1,.74.74,0,0,1,1,.28c4.55,7.94,9.11,11.16,9.15,11.19a.74.74,0,0,1,.19,1A.75.75,0,0,1,161,100.73Z" transform="translate(-16.96 -15.11)" style="fill:#fd505d"/><path d="M165,85.55a.74.74,0,0,1-.72-.58c0-.18-4.21-18.4-13.15-23.6a9.51,9.51,0,0,0-7.84-.89.74.74,0,0,1-.43-1.41,10.89,10.89,0,0,1,9,1c9.5,5.52,13.68,23.78,13.85,24.55a.73.73,0,0,1-.56.88Z" transform="translate(-16.96 -15.11)" style="fill:#fd505d"/><path d="M187.19,283.85a78.31,78.31,0,0,1-24.73-4.26,126.13,126.13,0,0,1-29.33-14.7,174.38,174.38,0,0,1-28.38-23.51,1.17,1.17,0,0,1,0-1.64,1.13,1.13,0,0,1,1.62,0,171,171,0,0,0,28,23.18c15.29,10.12,38.44,21.44,61.83,17.89a1.16,1.16,0,0,1,.34,2.29A62,62,0,0,1,187.19,283.85Z" transform="translate(-16.96 -15.11)" style="fill:#d61c3a"/><path d="M181.2,273.33h-.12c-9.12-1-19.76-6.51-31.61-16.42a145.79,145.79,0,0,1-15-14.55,1.18,1.18,0,0,1,.1-1.64,1.14,1.14,0,0,1,1.62.11c.24.28,24.42,27.95,45.17,30.19a1.16,1.16,0,0,1-.12,2.32Z" transform="translate(-16.96 -15.11)" style="fill:#d61c3a"/><path d="M98.88,316.3l-1.65-.52-.86-.29c-2.1-11-3.82-21.93-5.16-32.78a445.38,445.38,0,0,1-3.45-60.13c.42-33,4.87-52.25,4.92-52.45a1.13,1.13,0,0,1,1.37-.86,1.17,1.17,0,0,1,.84,1.4c0,.18-4.42,19.29-4.84,52A465.21,465.21,0,0,0,98.88,316.3Z" transform="translate(-16.96 -15.11)" style="fill:#d61c3a"/><polygon points="183.51 84.81 195.22 81.37 197.69 85.44 213.1 83.87 196.46 89.19 193.38 83.87 183.51 84.81" style="fill:#fff2ee"/><polygon points="180.34 91.05 191.99 94.69 191.85 99.47 205.58 106.73 188.79 101.92 189.09 95.75 180.34 91.05" style="fill:#fff2ee"/><path d="M17.22,213.57a56.44,56.44,0,0,0,3.62,13.71l.2.5a155.44,155.44,0,0,0,12.21,23.57c9,14.69,18.86,27.49,19.28,28a19.4,19.4,0,0,0,27.56,3.38,20.15,20.15,0,0,0,3.34-28c-.07-.09-6.86-8.91-13.88-19.79-7.68-11.91-11-19.07-12.35-22.81-.11-.31-.22-.6-.3-.86,1.22-1.74,2.62-3.56,4.17-5.45,17-20.77,51.6-49.45,65.34-60.12a20.15,20.15,0,0,0,3.69-27.95A19.43,19.43,0,0,0,102.58,114c-.64.5-15.78,12.26-33.2,27.72-23.86,21.17-40.06,38.69-48.18,52.07l-.42.71C17.57,200,16.37,206.37,17.22,213.57Z" transform="translate(-16.96 -15.11)" style="fill:#fd505d"/><path d="M17.22,213.57a56.44,56.44,0,0,0,3.62,13.71l.2.5c10.72-15.85,4.68-28.1.16-34l-.42.71C17.57,200,16.37,206.37,17.22,213.57Z" transform="translate(-16.96 -15.11)" style="fill:#d61c3a"/><path d="M57.2,212.16c-.11-.31-.22-.6-.3-.86,1.22-1.74,2.62-3.56,4.17-5.45-6.76-1.44-17.34-2.9-25.23-.31C35.84,205.54,48.19,207.94,57.2,212.16Z" transform="translate(-16.96 -15.11)" style="fill:#d61c3a"/><path d="M72.11,263.37c2.2-.9,5.6-.9,8.7-.47a36.82,36.82,0,0,1,13.07,4.74c4.57,3.11,17.52,13,18.17,17.53s-11.18-3.12-13.63-4.64a11.09,11.09,0,0,0-4.69-1.65s25.78,19.68,25.9,23.34-15.68-6.07-19.57-8.5c0,0,18.61,15.91,18,18.25-1.33,4.71-22.49-12.35-22.49-12.35s15,14.17,12.57,16.57c-2.55,2.53-18.54-12.7-18.54-12.7s8.41,10.67,7.28,13.68-20.51-18-23.1-21.62-10.37-12.7-12.92-17.9C59.08,274.12,65.18,266.21,72.11,263.37Z" transform="translate(-16.96 -15.11)" style="fill:#ffad96"/></svg>