<svg id="Camada_1" data-name="Camada 1" xmlns="http://www.w3.org/2000/svg" viewBox="0 0 78.02 79.69"><path d="M65,59.3c5.38.92,19.4,2.41,19.39,2.53-.1,1-.17,2.84.69,3.58s1.93,0,2.44-.82c.73-1.15,1.31-4.87-.37-6.28a1.18,1.18,0,0,0-1.45.07,3.92,3.92,0,0,0-1.12,2.23c-5.43-1.47-13.38-3.83-19-5C64.51,55.37,64,59.12,65,59.3Z" transform="translate(-10.26 -10.28)" style="fill:#27681d"/><path d="M31.78,57.09c-5,2.31-17.32,9.06-17.37,9-.5-.88-1.49-2.44-2.62-2.55s-1.57,1.11-1.53,2.06c.05,1.36,1.69,4.74,3.88,5a1.17,1.17,0,0,0,1.15-.88,3.93,3.93,0,0,0-.35-2.47c5.29-1.89,13.18-4.47,18.44-6.69C34.45,60,32.74,56.65,31.78,57.09Z" transform="translate(-10.26 -10.28)" style="fill:#27681d"/><path d="M47.25,33.65c.32-5.45.22-19.54.34-19.54,1,0,2.85-.16,3.48-1.1S50.83,11.1,50,10.69c-1.23-.6-5-.76-6.21,1.07A1.18,1.18,0,0,0,44,13.19a3.91,3.91,0,0,0,2.34.86c-.85,5.56-2.3,13.73-2.83,19.41C43.42,34.62,47.19,34.7,47.25,33.65Z" transform="translate(-10.26 -10.28)" style="fill:#27681d"/><path d="M39.71,39.79C36.33,35.51,26.89,25,27,25c.74-.69,2-2,1.87-3.13s-1.44-1.27-2.35-1c-1.32.37-4.23,2.75-3.93,4.92a1.18,1.18,0,0,0,1.13.92A3.91,3.91,0,0,0,26,25.74c3.06,4.71,7.4,11.78,10.78,16.39C37.49,43.06,40.37,40.61,39.71,39.79Z" transform="translate(-10.26 -10.28)" style="fill:#27681d"/><path d="M50.64,67.33c1.45,5.26,6.06,18.57,6,18.62-1,.34-2.65,1-3,2.15s.84,1.73,1.78,1.85c1.35.18,5-.88,5.53-3a1.17,1.17,0,0,0-.68-1.28,3.92,3.92,0,0,0-2.5-.07c-1-5.53-2.22-13.74-3.54-19.29C54,65.18,50.36,66.31,50.64,67.33Z" transform="translate(-10.26 -10.28)" style="fill:#27681d"/><path d="M37.19,77.41C30,74,25.22,66.59,23.28,59.07,21.41,51.82,21.6,42,26.37,35.75,36.65,22.38,58.2,24.4,66.78,36c9.12,12.3,5.56,32.41-7.7,40.13C52.5,79.93,44.15,80.72,37.19,77.41Z" transform="translate(-10.26 -10.28)" style="fill:#27681d"/><path d="M62.11,34.31c5.23,4.63,7.43,12,7.23,18.85C69.14,59.73,66.57,68,61,72.05c-11.92,8.74-29.58,1.77-34-10.07-4.68-12.59,3.24-28.66,16.3-31.91A20.84,20.84,0,0,1,62.11,34.31Z" transform="translate(-10.26 -10.28)" style="fill:#3a843a"/><path d="M66.48,40.85c3.19-1.82,11.11-7.05,11.16-7,.38.57,1.13,1.56,1.89,1.57s1-.84.91-1.47c-.11-.91-1.4-3.09-2.88-3.1a.78.78,0,0,0-.72.65,2.65,2.65,0,0,0,.37,1.64c-3.44,1.56-8.59,3.74-12,5.53C64.53,39,65.87,41.2,66.48,40.85Z" transform="translate(-10.26 -10.28)" style="fill:#3a843a"/><path d="M61.83,63.14C64.68,65.46,72.41,71,72.37,71c-.39.56-1,1.61-.78,2.33s1.14.62,1.7.32c.81-.43,2.38-2.42,1.86-3.81a.78.78,0,0,0-.87-.43,2.61,2.61,0,0,0-1.4.93c-2.7-2.65-6.58-6.66-9.48-9.19C62.81,60.66,61.28,62.69,61.83,63.14Z" transform="translate(-10.26 -10.28)" style="fill:#3a843a"/><path d="M44.77,71.84c-.78,3.59-2.18,13-2.26,13-.68-.09-1.91-.2-2.43.36s0,1.3.48,1.66c.75.53,3.23,1,4.23-.07a.78.78,0,0,0,0-1A2.66,2.66,0,0,0,43.32,85c1.14-3.61,3-8.89,3.91-12.61C47.42,71.6,44.92,71.15,44.77,71.84Z" transform="translate(-10.26 -10.28)" style="fill:#3a843a"/><path d="M37.7,64.47C35.15,67.12,29,74.36,29,74.31c-.53-.44-1.52-1.18-2.26-1S26,74.42,26.24,75c.36.85,2.21,2.58,3.63,2.17a.78.78,0,0,0,.51-.83,2.65,2.65,0,0,0-.81-1.47c2.86-2.46,7.19-6,10-8.67C40.09,65.66,38.2,64,37.7,64.47Z" transform="translate(-10.26 -10.28)" style="fill:#3a843a"/><path d="M32.9,46.84c-3.52-1-12.78-3.1-12.77-3.18.14-.67.34-1.89-.19-2.45s-1.29-.14-1.69.36c-.58.71-1.25,3.15-.23,4.23a.78.78,0,0,0,1,.06,2.62,2.62,0,0,0,.92-1.4c3.52,1.39,8.66,3.59,12.31,4.79C33,49.5,33.58,47,32.9,46.84Z" transform="translate(-10.26 -10.28)" style="fill:#3a843a"/><path d="M51.45,33.27c1.2-3.48,3.7-12.63,3.78-12.61.66.17,1.88.42,2.46-.07s.19-1.28-.28-1.71c-.68-.61-3.09-1.4-4.22-.43a.8.8,0,0,0-.11,1,2.66,2.66,0,0,0,1.36,1c-1.56,3.45-4,8.48-5.37,12.06C48.79,33.2,51.22,33.94,51.45,33.27Z" transform="translate(-10.26 -10.28)" style="fill:#3a843a"/><path d="M62.66,50.31a8.74,8.74,0,0,1,2.6,6.77c-.07,2.36-1,5.33-3,6.79C58,67,51.64,64.51,50.06,60.25c-1.68-4.52,1.17-10.3,5.86-11.47A7.5,7.5,0,0,1,62.66,50.31Z" transform="translate(-10.26 -10.28)" style="fill:#27681d"/><path d="M51.11,45a6.64,6.64,0,0,1-5.43.93,6.86,6.86,0,0,1-4.61-3.22c-1.71-3.66,1.09-8,4.5-8.56a6.86,6.86,0,0,1,7.67,6.06A5.67,5.67,0,0,1,51.11,45Z" transform="translate(-10.26 -10.28)" style="fill:#27681d"/><path d="M42.71,56.62a4.23,4.23,0,0,1-3.48.59,4.4,4.4,0,0,1-3-2.06,4.06,4.06,0,0,1,2.88-5.49,4.4,4.4,0,0,1,4.93,3.88A3.69,3.69,0,0,1,42.71,56.62Z" transform="translate(-10.26 -10.28)" style="fill:#27681d"/></svg>